<?xml version="1.0" standalone="no"?>
<!DOCTYPE svg PUBLIC "-//W3C//DTD SVG 20010904//EN"
 "http://www.w3.org/TR/2001/REC-SVG-20010904/DTD/svg10.dtd">
<svg version="1.0" xmlns="http://www.w3.org/2000/svg"
 width="512.000000pt" height="512.000000pt" viewBox="0 0 512.000000 512.000000"
 preserveAspectRatio="xMidYMid meet">
<metadata>
Created by potrace 1.11, written by Peter Selinger 2001-2013
</metadata>
<g transform="translate(0.000000,512.000000) scale(0.100000,-0.100000)"
fill="#000000" stroke="none">
<path d="M3975 4992 c-43 -70 -93 -149 -111 -177 -17 -27 -208 -333 -424 -680
-216 -346 -407 -652 -425 -680 -18 -27 -214 -340 -435 -695 -221 -355 -411
-658 -422 -673 -11 -16 -18 -31 -14 -34 3 -3 261 -6 574 -6 l569 1 -4 -22 c-3
-11 -14 -52 -24 -91 -10 -38 -20 -81 -23 -95 -3 -14 -41 -169 -86 -345 -45
-176 -84 -331 -87 -345 -3 -14 -37 -148 -74 -298 -38 -150 -71 -283 -73 -295
-2 -12 -23 -94 -45 -182 -23 -88 -43 -169 -46 -180 -3 -11 -13 -56 -24 -100
-21 -84 -21 -102 0 -63 6 12 26 46 44 73 39 60 751 1198 774 1237 9 15 102
164 206 330 105 167 191 309 193 315 2 7 8 13 13 13 5 0 9 4 9 8 0 5 148 246
329 535 237 379 325 527 313 528 -9 0 -268 0 -574 1 -307 0 -558 3 -558 7 0 4
40 168 90 365 49 196 92 367 95 379 2 12 38 157 80 322 41 165 78 309 80 320
3 11 29 119 60 240 30 121 57 229 60 240 6 30 12 54 29 115 8 30 13 56 12 57
-1 1 -37 -55 -81 -125z"/>
<path d="M603 3985 c-33 -33 -33 -34 -33 -127 0 -103 9 -127 57 -147 21 -8
170 -11 551 -9 l522 3 32 33 c33 32 33 33 32 128 0 89 -2 96 -27 122 l-27 27
-537 2 -537 1 -33 -33z"/>
<path d="M595 3194 c-14 -15 -26 -36 -27 -48 -6 -79 -5 -165 4 -188 23 -61
-11 -58 784 -58 660 0 728 2 754 17 42 24 52 52 53 139 1 94 -6 117 -40 144
-25 20 -38 20 -765 20 l-739 0 -24 -26z"/>
<path d="M634 2421 c-50 -9 -66 -48 -65 -164 1 -91 16 -139 46 -151 29 -11
685 -7 706 4 34 19 49 64 49 151 0 93 -22 144 -68 156 -27 6 -633 11 -668 4z"/>
<path d="M682 1623 c-4 -1 -19 -4 -34 -7 -29 -7 -77 -49 -79 -69 -6 -65 -3
-163 7 -185 25 -61 31 -62 582 -62 330 0 510 4 529 11 36 13 60 40 70 76 11
45 5 149 -11 181 -28 54 -35 55 -566 56 -270 0 -493 0 -498 -1z"/>
</g>
</svg>
