<?xml version="1.0" encoding="utf-8"?>
<!-- Generator: Adobe Illustrator 23.0.2, SVG Export Plug-In . SVG Version: 6.00 Build 0)  -->
<svg version="1.1" id="Layer_1" focusable="false" xmlns="http://www.w3.org/2000/svg" xmlns:xlink="http://www.w3.org/1999/xlink"
	 x="0px" y="0px" viewBox="0 0 512 512" style="enable-background:new 0 0 512 512;" xml:space="preserve">
<style type="text/css">
	.st0{fill:#D2D2D2;}
</style>
<path class="st0" d="M121.6,204.5v115.8c0,15.4-12.1,27.7-27.5,27.7C78.8,348,64,335.6,64,320.3V204.5c0-15.1,14.8-27.5,30.1-27.5
	C109.2,177,121.6,189.4,121.6,204.5z M132.4,361.5c0,16.4,13.2,29.6,29.6,29.6h19.9l0.3,61.1c0,36.9,55.2,36.6,55.2,0v-61.1h37.2
	v61.1c0,36.7,55.5,36.8,55.5,0v-61.1h20.2c16.2,0,29.4-13.2,29.4-29.6V182.1H132.4V361.5z M380.4,172.4H131.3
	c0-42.8,25.6-80,63.6-99.4l-19.1-35.3c-2.8-4.9,4.3-8,6.7-3.8l19.4,35.6c34.9-15.5,75-14.7,108.3,0L329.5,34
	c2.5-4.3,9.5-1.1,6.7,3.8L317.1,73C354.8,92.4,380.4,129.6,380.4,172.4z M209.7,116.9c0-5.7-4.6-10.5-10.5-10.5
	c-5.7,0-10.2,4.8-10.2,10.5s4.6,10.5,10.2,10.5C205.1,127.4,209.7,122.6,209.7,116.9z M323.1,116.9c0-5.7-4.6-10.5-10.2-10.5
	c-5.9,0-10.5,4.8-10.5,10.5s4.6,10.5,10.5,10.5C318.5,127.4,323.1,122.6,323.1,116.9z M417.9,177c-15.1,0-27.5,12.1-27.5,27.5v115.8
	c0,15.4,12.4,27.7,27.5,27.7c15.4,0,30.1-12.4,30.1-27.7V204.5C448,189.1,433.2,177,417.9,177z"/>
</svg>
