<?xml version="1.0" encoding="utf-8"?>
<!-- Generator: Adobe Illustrator 23.0.1, SVG Export Plug-In . SVG Version: 6.00 Build 0)  -->
<svg version="1.1" id="Layer_1" focusable="false" xmlns="http://www.w3.org/2000/svg" xmlns:xlink="http://www.w3.org/1999/xlink"
	 x="0px" y="0px" viewBox="0 0 384 512" style="enable-background:new 0 0 384 512;" xml:space="preserve">
<style type="text/css">
	.st0{fill:#C8C8C8;}
</style>
<path class="st0" d="M376,232H216V72c0-4.4-3.6-8-8-8h-32c-4.4,0-8,3.6-8,8v160H8c-4.4,0-8,3.6-8,8v32c0,4.4,3.6,8,8,8h160v160
	c0,4.4,3.6,8,8,8h32c4.4,0,8-3.6,8-8V280h160c4.4,0,8-3.6,8-8v-32C384,235.6,380.4,232,376,232z"/>
</svg>
