<?xml version="1.0" encoding="utf-8"?>
<!-- Generator: Adobe Illustrator 23.0.2, SVG Export Plug-In . SVG Version: 6.00 Build 0)  -->
<svg version="1.1" id="Layer_1" focusable="false" xmlns="http://www.w3.org/2000/svg" xmlns:xlink="http://www.w3.org/1999/xlink"
	 x="0px" y="0px" viewBox="0 0 512 512" style="enable-background:new 0 0 512 512;" xml:space="preserve">
<style type="text/css">
	.st0{fill:#A9A9A9;}
</style>
<path class="st0" d="M480,56.7v398.5c0,13.7-11.1,24.7-24.7,24.7H341.1V306.5h58.2l8.7-67.6h-67v-43.2c0-19.6,5.4-32.9,33.5-32.9
	h35.8v-60.5c-6.2-0.8-27.4-2.7-52.2-2.7c-51.6,0-87,31.5-87,89.4v49.9h-58.4v67.6h58.4V480H56.7C43.1,480,32,468.9,32,455.3V56.7
	C32,43.1,43.1,32,56.7,32h398.5C468.9,32,480,43.1,480,56.7z"/>
</svg>
