<?xml version="1.0" encoding="utf-8"?>
<!-- Generator: Adobe Illustrator 23.0.2, SVG Export Plug-In . SVG Version: 6.00 Build 0)  -->
<svg version="1.1" id="Layer_1" focusable="false" xmlns="http://www.w3.org/2000/svg" xmlns:xlink="http://www.w3.org/1999/xlink"
	 x="0px" y="0px" viewBox="0 0 512 512" style="enable-background:new 0 0 512 512;" xml:space="preserve">
<style type="text/css">
	.st0{fill:#FFFFFF;}
</style>
<path class="st0" d="M412.5,264l-148,148.5c-4.7,4.7-12.3,4.7-17,0L99.5,264c-4.7-4.7-4.7-12.3,0-17l7.1-7.1c4.7-4.7,12.3-4.7,17,0
	l115.4,116V44c0-6.6,5.4-12,12-12h10c6.6,0,12,5.4,12,12v311.9L388.4,240c4.7-4.7,12.3-4.7,17,0l7.1,7.1
	C417.2,251.7,417.2,259.3,412.5,264z M448,468v-8c0-6.6-5.4-12-12-12H76c-6.6,0-12,5.4-12,12v8c0,6.6,5.4,12,12,12h360
	C442.6,480,448,474.6,448,468z"/>
</svg>
