<?xml version="1.0" encoding="utf-8"?>
<!-- Generator: Adobe Illustrator 23.0.1, SVG Export Plug-In . SVG Version: 6.00 Build 0)  -->
<svg version="1.1" id="Layer_1" xmlns="http://www.w3.org/2000/svg" xmlns:xlink="http://www.w3.org/1999/xlink" x="0px" y="0px"
	 viewBox="0 0 576 512" style="enable-background:new 0 0 576 512;" xml:space="preserve">
<style type="text/css">
	.st0{fill:#CC7832;}
</style>
<path class="st0" d="M569.4,231.6C513,135.9,407.8,72,288,72C168.1,72,63,136,6.6,231.6c-8.9,15-8.9,33.7,0,48.7
	C63,376.1,168.2,440,288,440c119.9,0,225-64,281.4-159.6C578.2,265.3,578.2,246.7,569.4,231.6L569.4,231.6z M416,228
	c0,68.5-57.3,124-128,124s-128-55.5-128-124s57.3-124,128-124S416,159.5,416,228z M541.8,264.1C489.8,352.3,393.9,408,288,408
	c-106.3,0-202.1-56.1-253.8-143.9c-3-5-3-11.2,0-16.2c29.1-49.3,73.3-90.4,127.7-115.9c-21,26.2-33.9,59.6-33.9,96
	c0,85.8,71.2,156,160,156c88.8,0,160-70.2,160-156c0-36.4-12.8-69.8-33.9-96c53.8,25.2,98.3,66,127.7,115.9
	C544.7,252.9,544.7,259.1,541.8,264.1L541.8,264.1z M224,224c0-10.9,2.7-21.2,7.5-30.1v0c0,14.6,11.8,26.4,26.4,26.4
	c14.6,0,26.4-11.8,26.4-26.4s-11.8-26.4-26.4-26.4h0c9-4.8,19.2-7.5,30.1-7.5c35.3,0,64,28.7,64,64s-28.7,64-64,64
	S224,259.3,224,224z"/>
</svg>
