<?xml version="1.0" encoding="utf-8"?>
<!-- Generator: Adobe Illustrator 23.0.2, SVG Export Plug-In . SVG Version: 6.00 Build 0)  -->
<svg version="1.1" id="Layer_1" focusable="false" xmlns="http://www.w3.org/2000/svg" xmlns:xlink="http://www.w3.org/1999/xlink"
	 x="0px" y="0px" viewBox="0 0 512 512" style="enable-background:new 0 0 512 512;" xml:space="preserve">
<style type="text/css">
	.st0{fill:#A9A9A9;}
</style>
<path class="st0" d="M349.3,52.3C328.3,35.5,292.9,0,256,0c-36.7,0-71.4,34.8-93.3,52.3c-34.6,27.5-109.5,87.9-145.1,117
	C6.5,178.4,0,192,0,206.4V464c0,26.5,21.5,48,48,48h416c26.5,0,48-21.5,48-48V206.4c0-14.4-6.5-28-17.6-37.1
	C458.8,140.2,383.9,79.7,349.3,52.3z M464,480H48c-8.8,0-16-7.2-16-16V206.2c0-4.8,2.2-9.4,5.9-12.4
	c26.3-21.5,121.8-98.2,144.7-116.4C200.2,63.3,232.3,32,256,32c23.7,0,55.8,31.3,73.4,45.3c22.9,18.2,118.4,95,144.7,116.5
	c3.7,3,5.9,7.6,5.9,12.4V464C480,472.8,472.8,480,464,480L464,480z M455.2,263.7c4.2,5.2,3.4,12.7-1.8,16.9
	c-22.8,18.4-55.1,44.2-104.2,83.1c-21,16.8-56.9,52.5-93.3,52.3c-36.6,0.3-72.8-35.9-93.3-52.3c-49-38.9-81.3-64.7-104.1-83.1
	c-5.2-4.2-6-11.7-1.8-16.9l5-6.2c4.2-5.1,11.7-5.9,16.8-1.8c22.8,18.4,55,44.1,103.9,83c16.9,13.4,50.2,45.7,73.4,45.3
	c23.2,0.4,56.6-31.9,73.4-45.3c48.9-38.8,81.2-64.6,103.9-83c5.1-4.2,12.7-3.4,16.8,1.8L455.2,263.7z"/>
</svg>
