<?xml version="1.0" encoding="utf-8"?>
<!-- Generator: Adobe Illustrator 23.0.1, SVG Export Plug-In . SVG Version: 6.00 Build 0)  -->
<svg version="1.1" id="Layer_1" xmlns="http://www.w3.org/2000/svg" xmlns:xlink="http://www.w3.org/1999/xlink" x="0px" y="0px"
	 viewBox="0 0 512 512" style="enable-background:new 0 0 512 512;" xml:space="preserve">
<style type="text/css">
	.st0{fill:#CC7832;}
</style>
<path class="st0" d="M424.9,0c-23.5,0-46.9,9.6-63.7,28.7L169.9,240l-85.8,28.6C73.9,272,66,280,62.6,290.1L0,478l34,34l187.8-62.6
	c10.2-3.4,18.1-11.3,21.5-21.5l28.6-85.9l211.2-191.3C544.5,96.4,500.1,0,424.9,0z M212.9,417.8c-0.2,0.6-145.4,49.3-145.4,49.3
	l68.6-68.7c2.6,0.7,5,1.6,7.8,1.6c17.7,0,32-14.3,32-32s-14.3-32-32-32s-32,14.3-32,32c0,2.8,0.9,5.2,1.6,7.8l-68.6,68.7
	c0,0,48.7-145.3,49.3-145.5l88.5-29.5l59.7,59.7L212.9,417.8z M461.6,127L264.3,305.7l-58.1-58.1L385.1,49.9
	C395.2,38.5,409.7,32,424.9,32c29.1,0,55.9,25.5,54.9,56.6C479.3,103.4,473,116.9,461.6,127L461.6,127z"/>
</svg>
