<?xml version="1.0" encoding="utf-8"?>
<!-- Generator: Adobe Illustrator 23.0.1, SVG Export Plug-In . SVG Version: 6.00 Build 0)  -->
<svg version="1.1" id="Layer_1" focusable="false" xmlns="http://www.w3.org/2000/svg" xmlns:xlink="http://www.w3.org/1999/xlink"
	 x="0px" y="0px" viewBox="0 0 496 512" style="enable-background:new 0 0 496 512;" xml:space="preserve">
<style type="text/css">
	.st0{fill:#C8C8C8;}
</style>
<path class="st0" d="M248,8C111,8,0,119,0,256s111,248,248,248s248-111,248-248S385,8,248,8z M441.2,160h-82.5
	c-9-44.4-24.1-82.2-43.2-109.1C370.5,69.1,415.7,108.8,441.2,160z M336,256c0,22.9-1.6,44.2-4.3,64H164.3c-2.7-19.8-4.3-41.1-4.3-64
	s1.6-44.2,4.3-64h167.4C334.4,211.8,336,233.1,336,256z M248,40c26.9,0,61.4,44.1,78.1,120H169.9C186.6,84.1,221.1,40,248,40z
	 M180.5,50.9c-19,26.8-34.2,64.6-43.2,109.1H54.8C80.3,108.8,125.5,69.1,180.5,50.9z M32,256c0-22.3,3.4-43.8,9.7-64h90.5
	c-2.6,20.5-4.2,41.8-4.2,64s1.5,43.5,4.2,64H41.7C35.4,299.8,32,278.3,32,256z M54.8,352h82.5c9,44.4,24.1,82.2,43.2,109.1
	C125.5,442.9,80.3,403.2,54.8,352z M248,472c-26.9,0-61.4-44.1-78.1-120h156.2C309.4,427.9,274.9,472,248,472L248,472z M315.5,461.1
	c19-26.8,34.2-64.6,43.2-109.1h82.5C415.7,403.2,370.5,442.9,315.5,461.1z M363.8,320c2.6-20.5,4.2-41.8,4.2-64s-1.5-43.5-4.2-64
	h90.5c6.3,20.2,9.7,41.7,9.7,64s-3.4,43.8-9.7,64H363.8z"/>
</svg>
