<?xml version="1.0" encoding="utf-8"?>
<!-- Generator: Adobe Illustrator 23.0.1, SVG Export Plug-In . SVG Version: 6.00 Build 0)  -->
<svg version="1.1" id="Layer_1" xmlns="http://www.w3.org/2000/svg" xmlns:xlink="http://www.w3.org/1999/xlink" x="0px" y="0px"
	 viewBox="0 0 512 512" style="enable-background:new 0 0 512 512;" xml:space="preserve">
<style type="text/css">
	.st0{fill:#CC7832;}
</style>
<path class="st0" d="M464,4.3L16,262.7C-7,276-4.7,309.9,19.8,320L160,378v102c0,30.2,37.8,43.3,56.7,20.3l60.7-73.8l126.4,52.2
	c19.1,7.9,40.7-4.2,43.8-24.7l64-417.1C515.7,10.2,487-9,464,4.3z M192,480v-88.8l54.5,22.5L192,480z M416,449.1l-206.2-85.2
	l199.5-235.8c4.8-5.6-2.9-13.2-8.5-8.4L145.5,337.3L32,290.5L480,32L416,449.1z"/>
</svg>
