<?xml version="1.0" encoding="utf-8"?>
<!-- Generator: Adobe Illustrator 23.0.1, SVG Export Plug-In . SVG Version: 6.00 Build 0)  -->
<svg version="1.1" id="Layer_1" xmlns="http://www.w3.org/2000/svg" xmlns:xlink="http://www.w3.org/1999/xlink" x="0px" y="0px"
	 viewBox="0 0 384 512" style="enable-background:new 0 0 384 512;" xml:space="preserve">
<style type="text/css">
	.st0{fill:#7D7F7F;}
</style>
<path class="st0" d="M35.5,248l148-148.5c4.7-4.7,12.3-4.7,17,0l148,148.5c4.7,4.7,4.7,12.3,0,17l-7.1,7.1c-4.7,4.7-12.3,4.7-17,0
	L209,156.1V468c0,6.6-5.4,12-12,12h-10c-6.6,0-12-5.4-12-12V156.1L59.6,272c-4.7,4.7-12.3,4.7-17,0l-7.1-7.1
	C30.8,260.3,30.8,252.7,35.5,248z M0,44v8c0,6.6,5.4,12,12,12h360c6.6,0,12-5.4,12-12v-8c0-6.6-5.4-12-12-12H12C5.4,32,0,37.4,0,44z
	"/>
</svg>
