<svg xmlns="http://www.w3.org/2000/svg" viewBox="0 0 1280 720"><title>image-placeholder-16x9</title><rect width="1280" height="720" style="fill:#ddd"/><line x1="213.12" y1="76.32" x2="328.53" y2="90.4" style="fill:none;stroke:#d3d3d3;stroke-width:2px"/><polyline points="0 306 9.01 312.41 0 319" style="fill:none;stroke:#d3d3d3;stroke-width:2px"/><polyline points="286.16 362.6 201.76 299.5 110.9 265.52 20.04 211.68 0 216" style="fill:none;stroke:#d3d3d3;stroke-width:2px"/><polyline points="0 103 49.92 143.84 141.64 192.82 14.82 212.46 0 201" style="fill:none;stroke:#d3d3d3;stroke-width:2px"/><line x1="41.31" y1="374.63" x2="9.01" y2="312.41" style="fill:none;stroke:#d3d3d3;stroke-width:2px"/><path d="M105.9,266.52l25,80.31,65.89-46.33,46.94-60.9L141.64,192.82l-35.74,73.7L9,312.41l6-99.73,34.88-68.84L114.08,94l99-17.65L109,1,41.31,21.6,30,0" style="fill:none;stroke:#d3d3d3;stroke-width:2px"/><line y1="71" x2="41.31" y2="21.6" style="fill:none;stroke:#d3d3d3;stroke-width:2px"/><polyline points="141.64 192.82 114.08 93.97 1 91" style="fill:none;stroke:#d3d3d3;stroke-width:2px"/><line x1="270.4" y1="143.84" x2="114.08" y2="93.97" style="fill:none;stroke:#d3d3d3;stroke-width:2px"/><line x1="49.92" y1="143.84" y2="144" style="fill:none;stroke:#d3d3d3;stroke-width:2px"/><polyline points="0 17 41.3 21.6 114.08 93.97 109 1 281.16 10.57 213.12 76.32 270.4 143.84 141.64 192.82 196.76 300.5" style="fill:none;stroke:#d3d3d3;stroke-width:2px"/><line x1="130.87" y1="346.83" x2="9.01" y2="312.41" style="fill:none;stroke:#d3d3d3;stroke-width:2px"/><ellipse cx="213.12" cy="76.32" rx="7.75" ry="7.94" style="fill:#d3d3d3"/><ellipse cx="114.08" cy="93.97" rx="7.75" ry="7.94" style="fill:#d3d3d3"/><ellipse cx="141.64" cy="192.82" rx="7.75" ry="7.94" style="fill:#d3d3d3"/><ellipse cx="196.76" cy="300.5" rx="7.75" ry="7.94" style="fill:#d3d3d3"/><ellipse cx="105.9" cy="266.52" rx="7.75" ry="7.94" style="fill:#d3d3d3"/><ellipse cx="15.04" cy="212.68" rx="7.75" ry="7.94" style="fill:#d3d3d3"/><ellipse cx="9.01" cy="312.41" rx="7.75" ry="7.94" style="fill:#d3d3d3"/><ellipse cx="41.31" cy="21.6" rx="7.75" ry="7.94" style="fill:#d3d3d3"/><ellipse cx="49.92" cy="143.84" rx="7.75" ry="7.94" style="fill:#d3d3d3"/><line x1="557.68" y1="76.32" x2="673.08" y2="90.4" style="fill:none;stroke:#d3d3d3;stroke-width:2px"/><polyline points="625.72 363.6 541.31 300.5 450.45 266.52 359.59 212.68 243.75 239.6 353.56 312.41 281 363.38 243.75 239.6 141.69 192.82 270.45 143.84 213.18 76.32 281 10.35 267 0" style="fill:none;stroke:#d3d3d3;stroke-width:2px"/><path d="M213.18,76.32l115.4,14.12,65.89,53.4,91.72,49L359.37,212.46l-89.14-68.84m115.63,231-32.3-62.22" style="fill:none;stroke:#d3d3d3;stroke-width:2px"/><path d="M296,0,281,10.35l47.58,80.09-58.13,53.4-26.7,95.76-46.94,60.9,84.41,63.1" style="fill:none;stroke:#d3d3d3;stroke-width:2px"/><path d="M450.45,266.52l25,80.31,65.88-46.33,46.94-60.9L486.19,192.82l-35.74,73.7-96.89,45.89,6-99.73,34.88-68.84L458.63,94l99-17.65L453,1,385.86,21.6,375,0" style="fill:none;stroke:#d3d3d3;stroke-width:2px"/><polyline points="486.19 192.82 458.63 93.97 328.58 90.44 385.86 21.6" style="fill:none;stroke:#d3d3d3;stroke-width:2px"/><line x1="614.95" y1="143.84" x2="458.63" y2="93.97" style="fill:none;stroke:#d3d3d3;stroke-width:2px"/><line x1="394.47" y1="143.84" x2="270.45" y2="143.84" style="fill:none;stroke:#d3d3d3;stroke-width:2px"/><polyline points="281 10.35 385.86 21.6 458.63 93.97 453 1 625.72 10.57 557.68 76.32 614.95 143.84 486.19 192.82 541.31 300.5" style="fill:none;stroke:#d3d3d3;stroke-width:2px"/><line x1="475.43" y1="346.83" x2="353.56" y2="312.41" style="fill:none;stroke:#d3d3d3;stroke-width:2px"/><line x1="278" x2="281.22" y2="10.57" style="fill:none;stroke:#d3d3d3;stroke-width:2px"/><line x1="270.45" y1="143.84" x2="114.13" y2="93.97" style="fill:none;stroke:#d3d3d3;stroke-width:2px"/><ellipse cx="557.68" cy="76.32" rx="7.75" ry="7.94" style="fill:#d3d3d3"/><ellipse cx="458.63" cy="93.97" rx="7.75" ry="7.94" style="fill:#d3d3d3"/><ellipse cx="486.19" cy="192.82" rx="7.75" ry="7.94" style="fill:#d3d3d3"/><ellipse cx="541.31" cy="300.5" rx="7.75" ry="7.94" style="fill:#d3d3d3"/><ellipse cx="450.45" cy="266.52" rx="7.75" ry="7.94" style="fill:#d3d3d3"/><ellipse cx="359.59" cy="212.68" rx="7.75" ry="7.94" style="fill:#d3d3d3"/><ellipse cx="353.56" cy="312.41" rx="7.75" ry="7.94" style="fill:#d3d3d3"/><ellipse cx="243.75" cy="239.6" rx="7.75" ry="7.94" style="fill:#d3d3d3"/><ellipse cx="270.45" cy="143.84" rx="7.75" ry="7.94" style="fill:#d3d3d3"/><ellipse cx="281.22" cy="10.57" rx="7.75" ry="7.94" style="fill:#d3d3d3"/><ellipse cx="385.86" cy="21.6" rx="7.75" ry="7.94" style="fill:#d3d3d3"/><ellipse cx="328.58" cy="90.44" rx="7.75" ry="7.94" style="fill:#d3d3d3"/><ellipse cx="394.47" cy="143.84" rx="7.75" ry="7.94" style="fill:#d3d3d3"/><line x1="901.79" y1="76.32" x2="1017.19" y2="90.4" style="fill:none;stroke:#d3d3d3;stroke-width:2px"/><polyline points="969.82 363.6 885.42 300.5 794.56 266.52 703.7 212.68 587.86 239.6 697.67 312.41 625.11 363.38 587.86 239.6 485.8 192.82 614.56 143.84 557.29 76.32 625.11 10.35 611 0" style="fill:none;stroke:#d3d3d3;stroke-width:2px"/><path d="M557.29,76.32l115.4,14.12,65.89,53.4,91.72,49L703.48,212.46l-89.14-68.84M730,374.63l-32.3-62.22" style="fill:none;stroke:#d3d3d3;stroke-width:2px"/><path d="M640,0,625.11,10.35l47.58,80.09-58.13,53.4-26.7,95.76-46.94,60.9,84.4,63.1" style="fill:none;stroke:#d3d3d3;stroke-width:2px"/><path d="M794.56,266.52l25,80.31,65.88-46.33,46.94-60.9L830.3,192.82l-35.74,73.7-96.89,45.89,6-99.73,34.88-68.84L802.74,94l99-17.65L797,1,730,21.6,719,0" style="fill:none;stroke:#d3d3d3;stroke-width:2px"/><polyline points="830.3 192.82 802.74 93.97 672.69 90.44 729.97 21.6" style="fill:none;stroke:#d3d3d3;stroke-width:2px"/><line x1="959.06" y1="143.84" x2="802.74" y2="93.97" style="fill:none;stroke:#d3d3d3;stroke-width:2px"/><line x1="738.58" y1="143.84" x2="614.56" y2="143.84" style="fill:none;stroke:#d3d3d3;stroke-width:2px"/><polyline points="625.11 10.35 729.97 21.6 802.74 93.97 797 1 969.82 10.57 901.78 76.32 959.06 143.84 830.3 192.82 885.42 300.5" style="fill:none;stroke:#d3d3d3;stroke-width:2px"/><line x1="819.54" y1="346.83" x2="697.67" y2="312.41" style="fill:none;stroke:#d3d3d3;stroke-width:2px"/><line x1="622" x2="625.32" y2="10.57" style="fill:none;stroke:#d3d3d3;stroke-width:2px"/><line x1="614.56" y1="143.84" x2="458.24" y2="93.97" style="fill:none;stroke:#d3d3d3;stroke-width:2px"/><g style="opacity:0.6000000000000001"><ellipse cx="901.79" cy="76.32" rx="7.75" ry="7.94" style="fill:#d3d3d3"/><ellipse cx="802.74" cy="93.97" rx="7.75" ry="7.94" style="fill:#d3d3d3"/><ellipse cx="830.3" cy="192.82" rx="7.75" ry="7.94" style="fill:#d3d3d3"/><ellipse cx="885.42" cy="300.5" rx="7.75" ry="7.94" style="fill:#d3d3d3"/><ellipse cx="794.56" cy="266.52" rx="7.75" ry="7.94" style="fill:#d3d3d3"/><ellipse cx="703.7" cy="212.68" rx="7.75" ry="7.94" style="fill:#d3d3d3"/><ellipse cx="697.67" cy="312.41" rx="7.75" ry="7.94" style="fill:#d3d3d3"/><ellipse cx="587.86" cy="239.6" rx="7.75" ry="7.94" style="fill:#d3d3d3"/><ellipse cx="614.56" cy="143.84" rx="7.75" ry="7.94" style="fill:#d3d3d3"/><ellipse cx="625.32" cy="10.57" rx="7.75" ry="7.94" style="fill:#d3d3d3"/><ellipse cx="729.97" cy="21.6" rx="7.75" ry="7.94" style="fill:#d3d3d3"/><ellipse cx="672.69" cy="90.44" rx="7.75" ry="7.94" style="fill:#d3d3d3"/><ellipse cx="738.58" cy="143.84" rx="7.75" ry="7.94" style="fill:#d3d3d3"/></g><line x1="1246.34" y1="76.32" x2="1280" y2="80" style="fill:none;stroke:#d3d3d3;stroke-width:2px"/><polyline points="1280 338 1229.97 300.5 1139.11 266.52 1048.25 212.68 932.41 239.6 1042.22 312.41 969.66 363.38 932.41 239.6 830.35 192.82 959.11 143.84 901.84 76.32 969.66 10.35 956 0" style="fill:none;stroke:#d3d3d3;stroke-width:2px"/><path d="M901.84,76.32l115.41,14.12,65.88,53.4,91.72,49L1048,212.46,958.9,143.62m115.62,231-32.3-62.22" style="fill:none;stroke:#d3d3d3;stroke-width:2px"/><path d="M984,0,969.66,10.35l47.59,80.09-58.14,53.4-26.7,95.76-46.94,60.9,84.41,63.1" style="fill:none;stroke:#d3d3d3;stroke-width:2px"/><path d="M1139.11,266.52l25,80.31L1230,300.5l46.94-60.9-102.06-46.78-35.74,73.7-96.89,45.89,6-99.73,34.88-68.84L1147.29,94l99-17.65L1144,0l-69.48,21.6L1063,0" style="fill:none;stroke:#d3d3d3;stroke-width:2px"/><polyline points="1174.85 192.82 1147.29 93.97 1017.25 90.44 1074.52 21.6" style="fill:none;stroke:#d3d3d3;stroke-width:2px"/><line x1="1280" y1="136" x2="1147.29" y2="93.97" style="fill:none;stroke:#d3d3d3;stroke-width:2px"/><line x1="1083.13" y1="143.84" x2="959.11" y2="143.84" style="fill:none;stroke:#d3d3d3;stroke-width:2px"/><polyline points="1280 153 1174.85 192.82 1229.97 300.5" style="fill:none;stroke:#d3d3d3;stroke-width:2px"/><polyline points="1280 44 1246.34 76.32 1280 116" style="fill:none;stroke:#d3d3d3;stroke-width:2px"/><polyline points="969.66 10.35 1074.52 21.6 1147.29 93.97 1144 0 1280 7" style="fill:none;stroke:#d3d3d3;stroke-width:2px"/><line x1="1164.09" y1="346.83" x2="1042.22" y2="312.41" style="fill:none;stroke:#d3d3d3;stroke-width:2px"/><line x1="967" x2="969.88" y2="10.57" style="fill:none;stroke:#d3d3d3;stroke-width:2px"/><line x1="959.11" y1="143.84" x2="802.79" y2="93.97" style="fill:none;stroke:#d3d3d3;stroke-width:2px"/><ellipse cx="1246.34" cy="76.32" rx="7.75" ry="7.94" style="fill:#d3d3d3"/><ellipse cx="1147.29" cy="93.97" rx="7.75" ry="7.94" style="fill:#d3d3d3"/><ellipse cx="1174.85" cy="192.82" rx="7.75" ry="7.94" style="fill:#d3d3d3"/><ellipse cx="1229.97" cy="300.5" rx="7.75" ry="7.94" style="fill:#d3d3d3"/><ellipse cx="1139.11" cy="266.52" rx="7.75" ry="7.94" style="fill:#d3d3d3"/><ellipse cx="1048.25" cy="212.68" rx="7.75" ry="7.94" style="fill:#d3d3d3"/><ellipse cx="1042.22" cy="312.41" rx="7.75" ry="7.94" style="fill:#d3d3d3"/><ellipse cx="932.41" cy="239.6" rx="7.75" ry="7.94" style="fill:#d3d3d3"/><ellipse cx="959.11" cy="143.84" rx="7.75" ry="7.94" style="fill:#d3d3d3"/><ellipse cx="969.88" cy="10.57" rx="7.75" ry="7.94" style="fill:#d3d3d3"/><ellipse cx="1074.52" cy="21.6" rx="7.75" ry="7.94" style="fill:#d3d3d3"/><ellipse cx="1017.25" cy="90.44" rx="7.75" ry="7.94" style="fill:#d3d3d3"/><ellipse cx="1083.13" cy="143.84" rx="7.75" ry="7.94" style="fill:#d3d3d3"/><line x1="212.29" y1="428.75" x2="327.69" y2="442.83" style="fill:none;stroke:#d3d3d3;stroke-width:2px"/><polyline points="0 660 8.17 664.84 0 670" style="fill:none;stroke:#d3d3d3;stroke-width:2px"/><polyline points="280.33 716.03 195.92 652.92 105.06 618.94 14.2 565.11 0 568" style="fill:none;stroke:#d3d3d3;stroke-width:2px"/><polyline points="0 456 49.08 496.27 140.8 545.25 13.98 564.89 0 554" style="fill:none;stroke:#d3d3d3;stroke-width:2px"/><line x1="37" y1="720" x2="8.17" y2="664.84" style="fill:none;stroke:#d3d3d3;stroke-width:2px"/><path d="M105.06,618.94l25,80.32,65.88-46.34L242.86,592,140.8,545.25l-35.74,73.69L8.17,664.84l6-99.73,34.88-68.84,64.16-49.87,99.05-17.65L129.82,346,40.47,374,8.17,311.81" style="fill:none;stroke:#d3d3d3;stroke-width:2px"/><polyline points="105.06 265.92 130.25 346.45 195.92 299.89" style="fill:none;stroke:#d3d3d3;stroke-width:2px"/><line y1="423" x2="40.47" y2="374.03" style="fill:none;stroke:#d3d3d3;stroke-width:2px"/><polyline points="140.8 545.25 113.24 446.4 0 443" style="fill:none;stroke:#d3d3d3;stroke-width:2px"/><line x1="269.56" y1="496.27" x2="113.24" y2="446.4" style="fill:none;stroke:#d3d3d3;stroke-width:2px"/><line x1="49.08" y1="496.27" y2="496" style="fill:none;stroke:#d3d3d3;stroke-width:2px"/><polyline points="0 370 40.47 374.03 113.24 446.4 129.82 346.01 280.33 363 212.29 428.75 269.56 496.27 140.8 545.25 195.92 652.92" style="fill:none;stroke:#d3d3d3;stroke-width:2px"/><line x1="8.17" y1="311.81" x2="129.82" y2="346.01" style="fill:none;stroke:#d3d3d3;stroke-width:2px"/><line x1="130.04" y1="699.26" x2="8.17" y2="664.84" style="fill:none;stroke:#d3d3d3;stroke-width:2px"/><ellipse cx="212.29" cy="428.75" rx="7.75" ry="7.94" style="fill:#d3d3d3"/><ellipse cx="113.24" cy="446.4" rx="7.75" ry="7.94" style="fill:#d3d3d3"/><ellipse cx="140.8" cy="545.25" rx="7.75" ry="7.94" style="fill:#d3d3d3"/><ellipse cx="195.92" cy="652.92" rx="7.75" ry="7.94" style="fill:#d3d3d3"/><ellipse cx="105.06" cy="618.94" rx="7.75" ry="7.94" style="fill:#d3d3d3"/><ellipse cx="14.2" cy="565.11" rx="7.75" ry="7.94" style="fill:#d3d3d3"/><ellipse cx="8.17" cy="664.84" rx="7.75" ry="7.94" style="fill:#d3d3d3"/><ellipse cx="40.47" cy="374.03" rx="7.75" ry="7.94" style="fill:#d3d3d3"/><ellipse cx="130.04" cy="346.23" rx="7.75" ry="7.94" style="fill:#d3d3d3"/><ellipse cx="49.08" cy="496.27" rx="7.75" ry="7.94" style="fill:#d3d3d3"/><line x1="556.84" y1="428.75" x2="672.25" y2="442.83" style="fill:none;stroke:#d3d3d3;stroke-width:2px"/><polyline points="280.16 715.81 242.91 592.02 140.86 545.25 269.61 496.27 212.34 428.75 280.16 362.78 195.98 299.89" style="fill:none;stroke:#d3d3d3;stroke-width:2px"/><polyline points="624.88 716.03 540.48 652.92 449.61 618.94 358.75 565.11 242.91 592.02 352.72 664.84 280.16 715.81" style="fill:none;stroke:#d3d3d3;stroke-width:2px"/><polyline points="212.34 428.75 327.75 442.87 393.63 496.27 485.36 545.25 358.54 564.89 269.4 496.05" style="fill:none;stroke:#d3d3d3;stroke-width:2px"/><line x1="381" y1="720" x2="352.72" y2="664.84" style="fill:none;stroke:#d3d3d3;stroke-width:2px"/><path d="M449.61,618.94l25,80.32,65.89-46.34L587.41,592l-102-46.78-35.75,73.69-96.89,45.9,6-99.73,34.88-68.84L457.8,446.4l99-17.65L474.37,346,385,374l-32.3-62.22-72.56,51,47.59,80.09-58.14,53.4L242.91,592,196,652.92,280.38,716" style="fill:none;stroke:#d3d3d3;stroke-width:2px"/><path d="M449.61,265.92l25.2,80.53,65.67-46.56M485.36,545.25,457.8,446.4l-130-3.53L385,374M614.11,496.27,457.8,446.4m-64.17,49.87h-124" style="fill:none;stroke:#d3d3d3;stroke-width:2px"/><path d="M130.09,346.23l150.07,16.55L385,374,457.8,446.4,474.37,346l150.51,17-68,65.75,57.27,67.52-128.75,49,55.12,107.67M352.72,311.81,474.37,346m.22,353.25L352.72,664.84M242.91,239l37.47,124M269.61,496.27,113.3,446.4" style="fill:none;stroke:#d3d3d3;stroke-width:2px"/><ellipse cx="556.84" cy="428.75" rx="7.75" ry="7.94" style="fill:#d3d3d3"/><ellipse cx="457.8" cy="446.4" rx="7.75" ry="7.94" style="fill:#d3d3d3"/><ellipse cx="485.36" cy="545.25" rx="7.75" ry="7.94" style="fill:#d3d3d3"/><ellipse cx="540.48" cy="652.92" rx="7.75" ry="7.94" style="fill:#d3d3d3"/><ellipse cx="449.61" cy="618.94" rx="7.75" ry="7.94" style="fill:#d3d3d3"/><ellipse cx="358.75" cy="565.11" rx="7.75" ry="7.94" style="fill:#d3d3d3"/><ellipse cx="352.72" cy="664.84" rx="7.75" ry="7.94" style="fill:#d3d3d3"/><ellipse cx="242.91" cy="592.03" rx="7.75" ry="7.94" style="fill:#d3d3d3"/><ellipse cx="269.61" cy="496.27" rx="7.75" ry="7.94" style="fill:#d3d3d3"/><ellipse cx="280.38" cy="363" rx="7.75" ry="7.94" style="fill:#d3d3d3"/><ellipse cx="385.02" cy="374.03" rx="7.75" ry="7.94" style="fill:#d3d3d3"/><ellipse cx="474.59" cy="346.23" rx="7.75" ry="7.94" style="fill:#d3d3d3"/><ellipse cx="327.75" cy="442.87" rx="7.75" ry="7.94" style="fill:#d3d3d3"/><ellipse cx="393.63" cy="496.27" rx="7.75" ry="7.94" style="fill:#d3d3d3"/><line x1="901.79" y1="429.61" x2="1017.19" y2="443.68" style="fill:none;stroke:#d3d3d3;stroke-width:2px"/><polyline points="625.11 716.66 587.86 592.88 485.8 546.11 614.56 497.12 557.29 429.61 625.11 363.63 540.92 300.75" style="fill:none;stroke:#d3d3d3;stroke-width:2px"/><polyline points="969.82 716.88 885.42 653.78 794.56 619.8 703.7 565.97 587.86 592.88 697.67 665.7 625.11 716.66" style="fill:none;stroke:#d3d3d3;stroke-width:2px"/><polyline points="557.29 429.61 672.69 443.73 738.58 497.12 830.3 546.11 703.48 565.74 614.34 496.9" style="fill:none;stroke:#d3d3d3;stroke-width:2px"/><line x1="726" y1="720" x2="697.67" y2="665.7" style="fill:none;stroke:#d3d3d3;stroke-width:2px"/><path d="M794.56,619.8l25,80.32,65.88-46.34,46.94-60.9L830.3,546.11,794.56,619.8l-96.89,45.9,6-99.74,34.88-68.84,64.16-49.86,99-17.65-82.47-82.74-89.35,28-32.3-62.22-72.56,51,47.58,80.1-58.13,53.39-26.7,95.76-46.94,60.9,84.4,63.1" style="fill:none;stroke:#d3d3d3;stroke-width:2px"/><path d="M794.56,266.77l25.19,80.54,65.67-46.56M830.3,546.11l-27.56-98.85-130-3.53L730,374.89M959.06,497.12,802.74,447.26m-64.16,49.86h-124" style="fill:none;stroke:#d3d3d3;stroke-width:2px"/><path d="M475,347.09l150.07,16.54L730,374.89l72.77,72.37,16.58-100.39,150.5,17-68,65.75,57.27,67.51-128.76,49,55.12,107.67M697.67,312.67l121.65,34.2m.22,353.25L697.67,665.7M587.86,239.85l37.46,124M614.56,497.12,458.24,447.26" style="fill:none;stroke:#d3d3d3;stroke-width:2px"/><g style="opacity:0.6000000000000001"><ellipse cx="901.79" cy="429.61" rx="7.75" ry="7.94" style="fill:#d3d3d3"/><ellipse cx="802.74" cy="447.26" rx="7.75" ry="7.94" style="fill:#d3d3d3"/><ellipse cx="830.3" cy="546.11" rx="7.75" ry="7.94" style="fill:#d3d3d3"/><ellipse cx="885.42" cy="653.78" rx="7.75" ry="7.94" style="fill:#d3d3d3"/><ellipse cx="794.56" cy="619.8" rx="7.75" ry="7.94" style="fill:#d3d3d3"/><ellipse cx="703.7" cy="565.96" rx="7.75" ry="7.94" style="fill:#d3d3d3"/><ellipse cx="697.67" cy="665.7" rx="7.75" ry="7.94" style="fill:#d3d3d3"/><ellipse cx="587.86" cy="592.88" rx="7.75" ry="7.94" style="fill:#d3d3d3"/><ellipse cx="614.56" cy="497.12" rx="7.75" ry="7.94" style="fill:#d3d3d3"/><ellipse cx="625.32" cy="363.86" rx="7.75" ry="7.94" style="fill:#d3d3d3"/><ellipse cx="729.97" cy="374.89" rx="7.75" ry="7.94" style="fill:#d3d3d3"/><ellipse cx="819.54" cy="347.09" rx="7.75" ry="7.94" style="fill:#d3d3d3"/><ellipse cx="672.69" cy="443.73" rx="7.75" ry="7.94" style="fill:#d3d3d3"/><ellipse cx="738.58" cy="497.12" rx="7.75" ry="7.94" style="fill:#d3d3d3"/></g><line x1="1246.34" y1="429.61" x2="1280" y2="434" style="fill:none;stroke:#d3d3d3;stroke-width:2px"/><polyline points="969.66 716.66 932.41 592.88 830.35 546.11 959.11 497.12 901.84 429.61 969.66 363.63 885.47 300.75" style="fill:none;stroke:#d3d3d3;stroke-width:2px"/><polyline points="1280 691 1229.97 653.78 1139.11 619.8 1048.25 565.97 932.41 592.88 1042.22 665.7 969.66 716.66" style="fill:none;stroke:#d3d3d3;stroke-width:2px"/><polyline points="901.84 429.61 1017.25 443.73 1083.13 497.12 1174.85 546.11 1048.04 565.74 958.9 496.9" style="fill:none;stroke:#d3d3d3;stroke-width:2px"/><line x1="1070" y1="720" x2="1042.22" y2="665.7" style="fill:none;stroke:#d3d3d3;stroke-width:2px"/><path d="M1139.11,619.8l25,80.32L1230,653.78l46.94-60.9-102.06-46.77-35.74,73.69-96.89,45.9,6-99.74,34.88-68.84,64.16-49.86,99-17.65-82.47-82.74-89.35,28-32.3-62.22-72.56,51,47.59,80.1-58.14,53.39-26.7,95.76-46.94,60.9,84.41,63.1" style="fill:none;stroke:#d3d3d3;stroke-width:2px"/><polyline points="1139.11 266.77 1164.3 347.31 1229.97 300.75" style="fill:none;stroke:#d3d3d3;stroke-width:2px"/><polyline points="1174.85 546.11 1147.29 447.26 1017.25 443.73 1074.52 374.89" style="fill:none;stroke:#d3d3d3;stroke-width:2px"/><line x1="1280" y1="490" x2="1147.29" y2="447.26" style="fill:none;stroke:#d3d3d3;stroke-width:2px"/><line x1="1083.13" y1="497.12" x2="959.11" y2="497.12" style="fill:none;stroke:#d3d3d3;stroke-width:2px"/><polyline points="1280 506 1174.85 546.11 1229.97 653.78" style="fill:none;stroke:#d3d3d3;stroke-width:2px"/><polyline points="1280 397 1246.34 429.61 1279 469" style="fill:none;stroke:#d3d3d3;stroke-width:2px"/><polyline points="819.59 347.09 969.66 363.63 1074.52 374.89 1147.29 447.26 1163.87 346.87 1280 360" style="fill:none;stroke:#d3d3d3;stroke-width:2px"/><line x1="1042.22" y1="312.67" x2="1163.87" y2="346.87" style="fill:none;stroke:#d3d3d3;stroke-width:2px"/><line x1="1164.09" y1="700.12" x2="1042.22" y2="665.7" style="fill:none;stroke:#d3d3d3;stroke-width:2px"/><line x1="932.41" y1="239.85" x2="969.88" y2="363.86" style="fill:none;stroke:#d3d3d3;stroke-width:2px"/><line x1="959.11" y1="497.12" x2="802.79" y2="447.26" style="fill:none;stroke:#d3d3d3;stroke-width:2px"/><ellipse cx="1246.34" cy="429.61" rx="7.75" ry="7.94" style="fill:#d3d3d3"/><ellipse cx="1147.29" cy="447.26" rx="7.75" ry="7.94" style="fill:#d3d3d3"/><ellipse cx="1174.85" cy="546.11" rx="7.75" ry="7.94" style="fill:#d3d3d3"/><ellipse cx="1229.97" cy="653.78" rx="7.75" ry="7.94" style="fill:#d3d3d3"/><ellipse cx="1139.11" cy="619.8" rx="7.75" ry="7.94" style="fill:#d3d3d3"/><ellipse cx="1048.25" cy="565.96" rx="7.75" ry="7.94" style="fill:#d3d3d3"/><ellipse cx="1042.22" cy="665.7" rx="7.75" ry="7.94" style="fill:#d3d3d3"/><ellipse cx="932.41" cy="592.88" rx="7.75" ry="7.94" style="fill:#d3d3d3"/><ellipse cx="959.11" cy="497.12" rx="7.75" ry="7.94" style="fill:#d3d3d3"/><ellipse cx="969.88" cy="363.86" rx="7.75" ry="7.94" style="fill:#d3d3d3"/><ellipse cx="1074.52" cy="374.89" rx="7.75" ry="7.94" style="fill:#d3d3d3"/><ellipse cx="1164.09" cy="347.09" rx="7.75" ry="7.94" style="fill:#d3d3d3"/><ellipse cx="1017.25" cy="443.73" rx="7.75" ry="7.94" style="fill:#d3d3d3"/><ellipse cx="1083.13" cy="497.12" rx="7.75" ry="7.94" style="fill:#d3d3d3"/><circle cx="458.54" cy="272.2" r="58.54" style="fill:#b3b3b3"/><path d="M411.71,506.34H880V389.27L751.93,261.2a17.56,17.56,0,0,0-24.84,0L552.2,436.1l-57.83-57.83a17.56,17.56,0,0,0-24.84,0L411.71,436.1Z" style="fill:#b3b3b3"/></svg>