<svg xmlns="http://www.w3.org/2000/svg" viewBox="0 0 1280 960"><title>image-placeholder-4x3</title><rect width="1280" height="960" style="fill:#f0f0f0"/><circle cx="458.54" cy="392.2" r="58.54" style="fill:#b3b3b3"/><path d="M411.71,626.34H880V509.27L751.93,381.2a17.56,17.56,0,0,0-24.84,0L552.2,556.1l-57.83-57.83a17.56,17.56,0,0,0-24.84,0L411.71,556.1Z" style="fill:#b3b3b3"/><path d="M1222.7,907.05h7.45c.52,0,.92.31.86.82v.82a.92.92,0,0,1-.92.82h-7.45c-.52,0-.92-.32-.86-.82v-.82A.8.8,0,0,1,1222.7,907.05Z" style="fill:#52aee9"/><path d="M1222.48,913.22h10.91a.75.75,0,0,1,.7.81v.86a.84.84,0,0,1-.76.8h-10.91a.74.74,0,0,1-.7-.8v-.8C1221.72,913.66,1222,913.16,1222.48,913.22Z" style="fill:#52aee9"/><path d="M1222.4,919.4h4.92c.29,0,.63.45.63.83v.82c0,.45-.29.83-.63.83h-4.92c-.35.06-.64-.38-.64-.77v-.82C1221.76,919.72,1222,919.4,1222.4,919.4Z" style="fill:#52aee9"/><path d="M1222.66,925.59h7.4a.84.84,0,0,1,.92.83v.82a.92.92,0,0,1-.92.83h-7.4a.84.84,0,0,1-.92-.83v-.82A.87.87,0,0,1,1222.66,925.59Z" style="fill:#52aee9"/><path d="M1244.8,914.37l4-15.85-14.86,23.77h8.92l-4,15.85,14.86-23.77h-8.91" style="fill:#f38f19"/></svg>